<svg width="225" height="236" viewBox="0 0 225 236" fill="none" xmlns="http://www.w3.org/2000/svg">
<path d="M95.4636 89.931L100.494 93.2436L92.0531 79.615L105.045 91.356L100.129 74.8595L110.007 89.3708L108.067 70.8158L114.334 86.8445L117.592 68.1215L118.649 83.7958L125.494 71.7168L120.691 90.8658L134.966 72.9682L127.454 90.1127L141.428 80.1059L131.813 92.9243L150.178 85.246L133.432 99.1044L141.171 97.668L155.842 89.6064L147.929 90.3977L167.582 75.8946L141.734 85.8643L163.176 58.6317L137.333 77.2764L148.827 50.4299L130.532 73.1816L135.227 40.1236L120.716 72.6492L116.828 40.9206L112.192 69.0785L100.68 39.8452L103.967 71.0577L84.0916 44.5153L95.7773 75.0285L80.6509 62.9728L95.4636 89.931Z" fill="black"/>
<path d="M117.341 128.408L113.664 117.527C112.118 119.915 108.759 125.22 107.687 127.334C112.161 129.787 115.987 129.072 117.341 128.408Z" fill="black"/>
<path d="M105.685 126.763C104.338 118.794 94.9342 110.441 90.401 107.261C89.9411 108.257 92.6995 108.564 94.3849 112.242C96.0703 115.92 95.0742 115.46 97.679 120.287C100.284 125.115 101.395 124.54 105.685 126.763Z" fill="black"/>
<path d="M119.497 128.267C122.562 120.789 133.571 114.706 138.692 112.6C138.922 113.672 136.163 113.366 133.711 116.583C131.259 119.801 132.332 119.572 128.73 123.709C125.129 127.846 124.171 127.042 119.497 128.267Z" fill="black"/>
<path fill-rule="evenodd" clip-rule="evenodd" d="M115.436 147.511C112.868 134.456 111.941 129.461 111.797 128.587L113.771 128.263C113.908 129.099 114.828 134.055 117.398 147.126C118.085 150.62 117.526 154.711 116.247 158.967C114.963 163.237 112.927 167.761 110.565 172.162C105.841 180.963 99.7608 189.372 95.5947 194.436L94.0502 193.165C98.1527 188.178 104.154 179.878 108.803 171.216C111.127 166.886 113.099 162.49 114.332 158.391C115.568 154.277 116.033 150.548 115.436 147.511Z" fill="black"/>
<path d="M108.33 171.826C108.261 172.255 108.055 172.731 107.654 172.956L106.057 175.624C105.83 175.31 105.213 174.656 104.564 174.552C103.752 174.422 102.811 175.104 101.188 174.844C99.8895 174.636 99.5438 171.251 99.5332 169.585C99.2627 169.541 98.0984 169.188 95.6055 168.123C95.2683 166.072 95.8116 165.104 96.1254 164.877C95.9416 164.293 95.2493 163.072 93.9508 162.864C92.6524 162.656 92.0467 160.895 91.9062 160.04L90.933 155.722C91.5712 156.934 93.4709 159.624 95.9638 160.69C99.0799 162.021 97.0669 164.196 98.69 164.456C99.9884 164.664 101.308 165.43 101.806 165.787L103.689 164.424L103.169 167.67C102.358 167.54 101.442 168.059 104.272 171.176C105.982 173.058 107.043 173.299 107.654 172.956L108.33 171.826Z" fill="black"/>
<path d="M115.799 156.375L119.726 157.837L121.219 158.908L124.887 161.993L124.595 158.617L123.102 157.545L122.551 155.792C124.077 154.927 127.453 153.248 128.751 153.456C130.374 153.716 134.432 154.366 135.504 152.872C136.361 151.678 136.662 150.838 136.705 150.568L138.718 148.393L141.023 149.595L142.906 148.232L144.919 146.057L140.049 145.277L138.135 141.641L135.472 147.873L133.589 149.236L132.356 146.542C132.312 146.812 132.011 147.652 131.154 148.847C130.609 148.093 129.217 148.814 128.59 149.268C127.151 149.593 124.058 150.54 123.201 151.734C122.344 152.929 121.502 153.682 121.188 153.909L119.825 152.026L115.799 156.375Z" fill="black"/>
<path d="M102.871 112.367L106.78 119.14L112.489 114.676L107.731 109.304L102.871 112.367Z" fill="black"/>
<path d="M96.0552 102.952L99.9646 109.725L105.674 105.261L100.916 99.8893L96.0552 102.952Z" fill="black"/>
<path d="M113.226 99.684L109.316 92.9113L103.607 97.3752L108.365 102.747L113.226 99.684Z" fill="black"/>
<path d="M125.593 116.007L119.764 121.22L115.735 115.196L121.933 111.579L125.593 116.007Z" fill="black"/>
<path d="M135.008 109.191L129.18 114.404L125.15 108.381L131.348 104.763L135.008 109.191Z" fill="black"/>
<path d="M121.341 100.984L127.17 95.7707L131.199 101.794L125.001 105.412L121.341 100.984Z" fill="black"/>
<path d="M114.572 112.065L110.483 106.416L116.132 102.326L121.033 108.105L114.572 112.065Z" fill="black"/>
<path d="M116.652 99.0802L111.881 92.4897L117.691 92.588L124.054 94.4393L116.652 99.0802Z" fill="black"/>
<path d="M2.48862 115.273L4.24856 118.247H4.31674L6.08521 115.273H8.16902L5.50567 119.636L8.22868 124H6.10652L4.31674 121.021H4.24856L2.45879 124H0.345154L3.07669 119.636L0.39629 115.273H2.48862Z" fill="black"/>
<path d="M12.6031 84.0354L11.6683 86.9846L3.34893 84.3476L4.29145 81.3741C4.55669 80.5373 4.95157 79.8697 5.4761 79.3714C5.99791 78.8722 6.6204 78.5584 7.34357 78.43C8.06759 78.2989 8.86155 78.3702 9.72544 78.6441C10.592 78.9187 11.2848 79.3186 11.8038 79.8438C12.3237 80.3662 12.6536 80.9848 12.7936 81.6997C12.9344 82.4119 12.8709 83.1905 12.6031 84.0354ZM10.7187 84.748L11.0728 83.6309C11.2376 83.1109 11.2842 82.6443 11.2125 82.2312C11.1389 81.8145 10.9355 81.455 10.6022 81.1526C10.267 80.8467 9.78936 80.5955 9.1692 80.3989C8.55446 80.2041 8.02334 80.1356 7.57586 80.1934C7.12924 80.2485 6.75763 80.4243 6.46102 80.7207C6.16442 81.0171 5.93372 81.4252 5.7689 81.9452L5.41353 83.0664L10.7187 84.748Z" fill="black"/>
<path d="M9.04436 68.7514L17.0363 72.2576L16.295 73.9473L8.30306 70.4411L9.04436 68.7514Z" fill="black"/>
<path d="M16.9753 58.7532C16.6594 58.6134 16.3549 58.6092 16.0619 58.7403C15.7689 58.8715 15.5131 59.1299 15.2948 59.5155C15.1464 59.7776 15.0582 60.0198 15.0301 60.2423C14.9996 60.4633 15.0213 60.6584 15.0953 60.8277C15.1706 60.9944 15.2899 61.124 15.453 61.2163C15.5862 61.2983 15.721 61.3371 15.8573 61.3327C15.9951 61.3258 16.1325 61.2877 16.2697 61.2185C16.4044 61.1478 16.5402 61.055 16.6772 60.9399C16.8117 60.8235 16.9444 60.6929 17.0752 60.5483L17.6248 59.9584C17.8865 59.6692 18.1576 59.4211 18.438 59.2142C18.7184 59.0074 19.0062 58.8537 19.3015 58.7532C19.5967 58.6527 19.8982 58.6161 20.2059 58.6434C20.5151 58.6683 20.8285 58.7691 21.1464 58.9458C21.6097 59.2115 21.9455 59.5583 22.1536 59.9864C22.3607 60.4105 22.4336 60.8958 22.3722 61.4422C22.3099 61.9848 22.1037 62.5651 21.7537 63.1831C21.4065 63.7961 21.0102 64.2769 20.5647 64.6254C20.1207 64.9713 19.6424 65.1674 19.1298 65.2134C18.6162 65.2555 18.0828 65.1281 17.5295 64.8311L18.4093 63.2774C18.6737 63.4043 18.9276 63.4518 19.171 63.4198C19.4133 63.384 19.6393 63.2818 19.849 63.1133C20.0577 62.9408 20.2404 62.7162 20.3972 62.4393C20.5512 62.1674 20.6453 61.9089 20.6796 61.6639C20.7153 61.4164 20.6942 61.1971 20.6163 61.0061C20.5384 60.8151 20.4079 60.6677 20.225 60.5641C20.0544 60.4675 19.8824 60.437 19.7088 60.4726C19.5366 60.5057 19.3551 60.5955 19.1643 60.7421C18.975 60.8863 18.7685 61.0779 18.545 61.317L17.869 62.0263C17.3507 62.5783 16.8209 62.946 16.2797 63.1292C15.7385 63.3124 15.188 63.2439 14.6282 62.9236C14.167 62.6657 13.8346 62.3158 13.631 61.8741C13.4288 61.4298 13.3544 60.9355 13.408 60.3912C13.4616 59.847 13.6452 59.298 13.9587 58.7442C14.2779 58.1806 14.6529 57.7433 15.0837 57.4322C15.5159 57.1187 15.9703 56.9418 16.447 56.9016C16.9236 56.8613 17.3902 56.9656 17.8467 57.2143L16.9753 58.7532Z" fill="black"/>
<path d="M26.7576 45.4033L25.6357 46.8949C25.4222 46.777 25.2089 46.7037 24.9959 46.675C24.7806 46.6446 24.5701 46.6551 24.3643 46.7065C24.1586 46.7579 23.9624 46.8485 23.7759 46.9784C23.5911 47.106 23.4235 47.2696 23.2732 47.4694C23.0017 47.8304 22.8548 48.2123 22.8327 48.6151C22.8083 49.0162 22.9108 49.4186 23.1404 49.8224C23.3676 50.2244 23.7231 50.6073 24.2067 50.971C24.7039 51.345 25.1771 51.5855 25.6264 51.6923C26.0774 51.797 26.4899 51.7802 26.864 51.6421C27.238 51.504 27.5574 51.259 27.8221 50.9071C27.9707 50.7096 28.082 50.5072 28.1562 50.2999C28.232 50.0903 28.2695 49.8821 28.2687 49.6753C28.2656 49.4668 28.2238 49.2647 28.1434 49.0692C28.0647 48.8713 27.9451 48.6854 27.7845 48.5113L28.9133 47.0248C29.2044 47.3042 29.4406 47.6329 29.6219 48.011C29.8026 48.3851 29.9126 48.7895 29.9517 49.2243C29.9903 49.655 29.9437 50.0998 29.8118 50.5587C29.6793 51.0137 29.4449 51.4647 29.1085 51.912C28.6405 52.5341 28.0814 52.9844 27.431 53.2631C26.7823 53.5394 26.0845 53.6188 25.3375 53.5013C24.5922 53.3815 23.8404 53.0364 23.0821 52.466C22.3215 51.894 21.7821 51.2642 21.4637 50.5768C21.1454 49.8895 21.031 49.1956 21.1206 48.4951C21.208 47.793 21.4822 47.1354 21.9433 46.5224C22.2473 46.1183 22.5858 45.7864 22.9589 45.5267C23.3337 45.2647 23.7308 45.0817 24.1503 44.9778C24.5675 44.8721 24.9959 44.8531 25.4356 44.9208C25.877 44.9862 26.3177 45.147 26.7576 45.4033Z" fill="black"/>
<path d="M38.4707 34.6538C39.1447 35.3257 39.5908 36.0251 39.8089 36.7519C40.029 37.4767 40.0452 38.1828 39.8575 38.8701C39.6698 39.5534 39.3042 40.1677 38.7606 40.713C38.2131 41.2623 37.597 41.6309 36.9123 41.8188C36.2276 42.0067 35.5225 41.9918 34.7969 41.774C34.0714 41.5562 33.3726 41.1124 32.7006 40.4425C32.0265 39.7706 31.5795 39.0723 31.3593 38.3475C31.1392 37.6226 31.123 36.9186 31.3107 36.2353C31.4964 35.5499 31.8631 34.9326 32.4106 34.3834C32.9541 33.8381 33.5682 33.4715 34.2529 33.2836C34.9376 33.0916 35.6427 33.1046 36.3683 33.3223C37.0958 33.5381 37.7966 33.982 38.4707 34.6538ZM37.15 35.9788C36.7134 35.5436 36.28 35.2419 35.8498 35.0739C35.4217 34.9038 35.0128 34.8593 34.6232 34.9403C34.2336 35.0212 33.8814 35.2197 33.5665 35.5356C33.2516 35.8515 33.0543 36.2043 32.9746 36.5942C32.8949 36.984 32.9397 37.3937 33.1092 37.8234C33.2806 38.251 33.5846 38.6824 34.0213 39.1176C34.4579 39.5528 34.8903 39.8554 35.3184 40.0255C35.7486 40.1935 36.1584 40.2371 36.548 40.1561C36.9376 40.0751 37.2898 39.8767 37.6047 39.5608C37.9196 39.2449 38.1169 38.892 38.1966 38.5022C38.2763 38.1123 38.2305 37.7036 38.0591 37.276C37.8896 36.8464 37.5866 36.414 37.15 35.9788Z" fill="black"/>
<path d="M42.6161 25.3723L48.3191 29.3586L48.3835 29.3094L46.0352 22.7582L47.6602 21.5158L50.5709 30.2762L48.6819 31.7204L40.9878 26.6172L42.6161 25.3723Z" fill="black"/>
<path d="M57.889 25.2184L53.494 17.6785L58.5745 14.717L59.3407 16.0313L55.8542 18.0636L56.9015 19.8602L60.1265 17.9803L60.8927 19.2946L57.6676 21.1745L58.717 22.9748L62.2182 20.934L62.9843 22.2483L57.889 25.2184Z" fill="black"/>
<path d="M69.1498 19.0957L65.6919 11.0827L68.8532 9.71848C69.4584 9.45733 70.0216 9.34271 70.5428 9.37461C71.0655 9.40277 71.524 9.56538 71.9182 9.86245C72.314 10.1558 72.6262 10.5672 72.8547 11.0967C73.0843 11.6288 73.1671 12.1361 73.103 12.6186C73.0378 13.0985 72.8313 13.5341 72.4835 13.9256C72.1383 14.3159 71.6579 14.6439 71.0423 14.9095L68.9256 15.8229L68.338 14.4614L70.1809 13.6661C70.5043 13.5265 70.7538 13.3663 70.9294 13.1853C71.1051 13.0043 71.2068 12.8026 71.2346 12.5802C71.265 12.3567 71.2233 12.1132 71.1096 11.8497C70.9948 11.5837 70.8445 11.3824 70.6588 11.246C70.4757 11.1084 70.2556 11.0394 69.9986 11.0389C69.743 11.0347 69.4523 11.103 69.1262 11.2437L67.9837 11.7367L70.8439 18.3646L69.1498 19.0957ZM71.9035 13.5818L75.4686 16.3689L73.5984 17.176L70.0763 14.3703L71.9035 13.5818Z" fill="black"/>
<path d="M91.9602 5.10825C91.8543 4.77947 91.6548 4.54938 91.3619 4.41797C91.069 4.28657 90.706 4.2677 90.2728 4.36137C89.9784 4.42501 89.7389 4.5204 89.5542 4.64754C89.369 4.77189 89.2378 4.91797 89.1607 5.08578C89.0864 5.25299 89.0691 5.42822 89.1087 5.61149C89.1362 5.76541 89.1969 5.89179 89.291 5.99062C89.3878 6.08886 89.5077 6.16612 89.6506 6.2224C89.793 6.2759 89.9527 6.31549 90.1297 6.34115C90.3062 6.36404 90.4919 6.37619 90.687 6.37762L91.493 6.39516C91.8831 6.39801 92.2486 6.43523 92.5896 6.50681C92.9306 6.5784 93.2369 6.69093 93.5084 6.8444C93.78 6.99787 94.0079 7.19854 94.1923 7.44642C94.3795 7.69369 94.5129 7.99474 94.5925 8.34956C94.7026 8.87219 94.6672 9.35362 94.4863 9.79385C94.3075 10.2307 93.9938 10.6081 93.5452 10.926C93.0988 11.2405 92.5284 11.4728 91.8343 11.6229C91.1456 11.7718 90.523 11.796 89.9665 11.6955C89.4127 11.5943 88.9481 11.3678 88.5726 11.0159C88.1993 10.6606 87.9394 10.1777 87.7928 9.56702L89.538 9.18965C89.6193 9.47145 89.7528 9.69254 89.9387 9.85291C90.1266 10.0099 90.3533 10.1106 90.6187 10.1549C90.8862 10.1959 91.1755 10.1828 91.4865 10.1155C91.7919 10.0495 92.0475 9.9477 92.2532 9.81021C92.4617 9.67212 92.6113 9.51043 92.702 9.32513C92.7928 9.13984 92.8159 8.94446 92.7715 8.73898C92.73 8.54738 92.6383 8.39864 92.4962 8.29275C92.3569 8.18626 92.1691 8.11062 91.9327 8.06582C91.6991 8.02042 91.4187 7.99386 91.0915 7.98613L90.1122 7.95373C89.3552 7.9343 88.7282 7.78358 88.2312 7.50156C87.7343 7.21954 87.419 6.76308 87.2855 6.13216C87.1711 5.61628 87.2109 5.13534 87.4052 4.68934C87.6021 4.24273 87.9216 3.85829 88.3634 3.53603C88.8053 3.21377 89.3373 2.98539 89.9592 2.8509C90.5923 2.714 91.1683 2.70281 91.6872 2.81732C92.2089 2.93124 92.6433 3.15266 92.9906 3.48158C93.3378 3.81051 93.5705 4.22814 93.6887 4.73448L91.9602 5.10825Z" fill="black"/>
<path d="M108.435 3.52428L106.575 3.67964C106.52 3.44184 106.433 3.23389 106.313 3.05578C106.192 2.87485 106.044 2.72472 105.869 2.60537C105.694 2.48603 105.496 2.39995 105.274 2.34715C105.056 2.2941 104.823 2.27799 104.573 2.2988C104.123 2.33639 103.741 2.48097 103.425 2.73252C103.11 2.98125 102.877 3.32562 102.729 3.76565C102.58 4.20285 102.531 4.72295 102.581 5.32597C102.633 5.94597 102.769 6.4592 102.988 6.86565C103.21 7.27187 103.497 7.56861 103.849 7.75587C104.201 7.94313 104.596 8.01843 105.035 7.98178C105.282 7.96121 105.507 7.90962 105.711 7.827C105.918 7.74416 106.098 7.63359 106.252 7.49531C106.405 7.3542 106.528 7.18855 106.621 6.99838C106.716 6.80797 106.775 6.59492 106.798 6.35923L108.659 6.21237C108.644 6.61557 108.556 7.01064 108.395 7.39759C108.236 7.78147 108.007 8.13268 107.709 8.45124C107.413 8.76672 107.05 9.02796 106.619 9.23495C106.192 9.43887 105.699 9.56412 105.141 9.6107C104.366 9.67549 103.657 9.5579 103.017 9.25793C102.379 8.95771 101.855 8.48974 101.445 7.854C101.039 7.21802 100.796 6.42725 100.717 5.48168C100.638 4.53328 100.749 3.71153 101.05 3.01644C101.351 2.32135 101.793 1.77415 102.375 1.37486C102.957 0.972733 103.631 0.739748 104.395 0.675904C104.899 0.633814 105.372 0.665574 105.814 0.771185C106.259 0.876559 106.66 1.05119 107.017 1.29506C107.373 1.53611 107.673 1.84323 107.915 2.21642C108.16 2.58937 108.333 3.02532 108.435 3.52428Z" fill="black"/>
<path d="M124.253 5.112C124.2 6.06224 123.975 6.86063 123.578 7.50718C123.183 8.15389 122.667 8.63591 122.029 8.95326C121.394 9.26792 120.693 9.40388 119.924 9.36113C119.149 9.31807 118.464 9.10355 117.868 8.7176C117.272 8.33164 116.814 7.79543 116.494 7.10897C116.174 6.42251 116.04 5.60558 116.092 4.65818C116.145 3.70794 116.369 2.90947 116.763 2.26276C117.158 1.61605 117.673 1.13537 118.307 0.820706C118.943 0.503206 119.647 0.365988 120.422 0.409052C121.19 0.451799 121.873 0.666153 122.469 1.05211C123.068 1.43539 123.527 1.97026 123.848 2.65672C124.171 3.34334 124.306 4.16177 124.253 5.112ZM122.385 5.00813C122.419 4.3926 122.356 3.86839 122.195 3.4355C122.037 3.00276 121.798 2.66796 121.479 2.43109C121.159 2.19422 120.776 2.0634 120.331 2.03864C119.886 2.01387 119.491 2.10147 119.147 2.30142C118.803 2.50138 118.527 2.80755 118.319 3.21994C118.114 3.63249 117.994 4.14653 117.96 4.76205C117.926 5.37758 117.988 5.90171 118.146 6.33445C118.307 6.76734 118.547 7.10223 118.867 7.33909C119.187 7.57596 119.569 7.70678 120.014 7.73154C120.46 7.75631 120.854 7.66871 121.198 7.46876C121.542 7.2688 121.817 6.96255 122.022 6.55C122.23 6.13761 122.351 5.62365 122.385 5.00813Z" fill="black"/>
<path d="M131.778 3.16239L132.065 1.6684L139.103 3.02072L138.816 4.5147L136.193 4.0106L134.833 11.0871L133.042 10.743L134.401 3.66649L131.778 3.16239Z" fill="black"/>
<path d="M144.221 13.3404L146.885 5.02956L148.642 5.59275L146.443 12.4549L150.006 13.5968L149.542 15.0456L144.221 13.3404Z" fill="black"/>
<path d="M156.742 17.8806L154.945 17.0553L161.326 10.3819L163.486 11.3743L162.578 20.5608L160.781 19.7356L161.605 12.7047L161.543 12.6762L156.742 17.8806ZM158.062 14.7116L162.306 16.6609L161.705 17.9698L157.46 16.0205L158.062 14.7116Z" fill="black"/>
<path d="M178.564 19.8692L173.927 27.2627L172.577 26.4159L172.279 19.7451L172.225 19.7111L169.306 24.3645L167.743 23.3841L172.38 15.9907L173.752 16.851L174.027 23.5024L174.092 23.5431L177.008 18.8933L178.564 19.8692Z" fill="black"/>
<path d="M181.601 33.0316L179.215 31.0628L184.769 24.3307L187.175 26.3158C187.852 26.8744 188.324 27.4901 188.59 28.1628C188.858 28.8333 188.917 29.528 188.766 30.2467C188.617 30.9673 188.254 31.6772 187.677 32.3762C187.099 33.0775 186.469 33.5707 185.788 33.856C185.109 34.1431 184.412 34.218 183.697 34.0808C182.984 33.9454 182.285 33.5956 181.601 33.0316ZM181.644 31.0175L182.548 31.7632C182.969 32.1103 183.384 32.3278 183.794 32.4156C184.208 32.5031 184.618 32.4486 185.023 32.2524C185.432 32.0558 185.843 31.7065 186.257 31.2047C186.668 30.7073 186.93 30.2402 187.043 29.8035C187.159 29.3686 187.135 28.9582 186.971 28.5724C186.806 28.1865 186.514 27.8201 186.093 27.4729L185.186 26.7245L181.644 31.0175Z" fill="black"/>
<path d="M204.218 48.409L203.055 46.9492C203.223 46.772 203.347 46.5839 203.429 46.3849C203.512 46.1841 203.555 45.9776 203.556 45.7656C203.558 45.5535 203.52 45.3409 203.441 45.1278C203.363 44.9169 203.247 44.7136 203.091 44.5181C202.81 44.1648 202.477 43.927 202.092 43.8046C201.71 43.6805 201.295 43.679 200.846 43.8C200.4 43.9194 199.941 44.1675 199.467 44.5446C198.981 44.9322 198.629 45.3302 198.413 45.7383C198.199 46.1487 198.112 46.5523 198.152 46.949C198.192 47.3458 198.349 47.7163 198.623 48.0607C198.777 48.2541 198.946 48.4126 199.128 48.5363C199.312 48.6622 199.504 48.7507 199.704 48.8017C199.907 48.8509 200.113 48.8611 200.322 48.8322C200.534 48.8056 200.744 48.7364 200.952 48.6246L202.109 50.0898C201.765 50.3016 201.388 50.4479 200.976 50.5287C200.569 50.6099 200.15 50.615 199.719 50.544C199.292 50.4735 198.874 50.3169 198.462 50.0743C198.055 49.8321 197.677 49.4921 197.328 49.0544C196.843 48.4455 196.547 47.7914 196.441 47.0919C196.336 46.3947 196.433 45.6992 196.734 45.0055C197.037 44.314 197.56 43.6726 198.302 43.0814C199.046 42.4884 199.791 42.1239 200.536 41.9879C201.281 41.8519 201.982 41.915 202.637 42.1772C203.295 42.4377 203.863 42.8679 204.341 43.4678C204.656 43.8634 204.893 44.2742 205.051 44.7005C205.21 45.129 205.288 45.5593 205.284 45.9914C205.281 46.4218 205.192 46.8413 205.017 47.25C204.843 47.6609 204.577 48.0473 204.218 48.409Z" fill="black"/>
<path d="M203.823 57.8004L211.274 53.256L212.234 54.8312L206.082 58.5835L208.031 61.7777L206.732 62.5699L203.823 57.8004Z" fill="black"/>
<path d="M219.878 69.344L220.642 71.0233L215.484 73.3721C214.905 73.6359 214.335 73.7283 213.775 73.6495C213.216 73.5732 212.702 73.3435 212.234 72.9604C211.769 72.576 211.387 72.0555 211.088 71.3988C210.788 70.7395 210.645 70.1082 210.661 69.5049C210.679 68.9004 210.843 68.3622 211.152 67.8904C211.462 67.4185 211.906 67.0507 212.486 66.787L217.644 64.4381L218.408 66.1174L213.394 68.4009C213.091 68.5386 212.852 68.727 212.677 68.966C212.503 69.2076 212.404 69.4805 212.38 69.7848C212.357 70.089 212.418 70.4028 212.565 70.7259C212.714 71.0517 212.91 71.3042 213.154 71.4834C213.399 71.6652 213.669 71.7685 213.965 71.7932C214.261 71.8205 214.561 71.7653 214.863 71.6275L219.878 69.344Z" fill="black"/>
<path d="M215.033 80.7939L223.365 78.1954L224.405 81.5313C224.596 82.1442 224.665 82.6838 224.611 83.1499C224.557 83.6161 224.401 84.0026 224.142 84.3094C223.886 84.6153 223.55 84.8334 223.132 84.9637C222.807 85.0652 222.5 85.0893 222.213 85.0361C221.928 84.9821 221.672 84.8657 221.443 84.6869C221.218 84.51 221.028 84.2866 220.873 84.0167L220.791 84.0421C220.877 84.3637 220.88 84.6885 220.801 85.0168C220.722 85.3477 220.561 85.6465 220.317 85.9131C220.075 86.1789 219.75 86.3756 219.34 86.5033C218.898 86.6412 218.469 86.6544 218.054 86.543C217.642 86.4335 217.269 86.1971 216.935 85.8339C216.602 85.4707 216.338 84.9772 216.143 84.3535L215.033 80.7939ZM217.023 82.1062L217.47 83.5423C217.624 84.0331 217.829 84.3619 218.086 84.5287C218.346 84.6946 218.633 84.7285 218.948 84.6303C219.179 84.5584 219.365 84.4394 219.506 84.2732C219.648 84.1071 219.737 83.9053 219.773 83.6679C219.81 83.4332 219.784 83.1748 219.696 82.8927L219.236 81.416L217.023 82.1062ZM220.428 81.0443L220.835 82.3501C220.91 82.5915 221.019 82.7926 221.161 82.9535C221.307 83.1163 221.476 83.2274 221.667 83.2868C221.859 83.349 222.065 83.3458 222.285 83.2773C222.586 83.1834 222.795 83.0006 222.913 82.7288C223.031 82.4597 223.029 82.1299 222.908 81.7394L222.49 80.401L220.428 81.0443Z" fill="black"/>
<path d="M6.06043 154.483L14.386 151.866L15.443 155.143C15.6462 155.773 15.6987 156.348 15.6005 156.867C15.505 157.385 15.2821 157.828 14.9316 158.194C14.5847 158.562 14.1348 158.833 13.5819 159.007C13.029 159.181 12.5028 159.215 12.0033 159.11C11.5038 159.005 11.0633 158.764 10.6819 158.386C10.3013 158.012 10.0081 157.505 9.80232 156.867L9.12863 154.778L10.5393 154.335L11.1214 156.14C11.2304 156.478 11.3785 156.738 11.5657 156.92C11.7564 157.104 11.9736 157.218 12.2172 157.26C12.4643 157.305 12.7247 157.284 12.9985 157.198C13.2749 157.111 13.4982 156.98 13.6684 156.804C13.8422 156.63 13.9503 156.415 13.9926 156.157C14.0376 155.899 14.0052 155.599 13.8953 155.259L13.5133 154.075L6.62685 156.239L6.06043 154.483Z" fill="black"/>
<path d="M11.2783 169.014L19.1655 165.278L20.6706 168.375C20.9587 168.968 21.0981 169.524 21.0886 170.044C21.083 170.566 20.9398 171.028 20.6589 171.431C20.3818 171.836 19.9827 172.162 19.4615 172.409C18.9377 172.657 18.4325 172.758 17.9458 172.712C17.4617 172.664 17.0158 172.475 16.6081 172.143C16.2017 171.814 15.852 171.348 15.5589 170.745L14.5512 168.671L15.8914 168.036L16.7687 169.841C16.9227 170.158 17.0943 170.401 17.2834 170.569C17.4725 170.737 17.6792 170.831 17.9035 170.851C18.129 170.873 18.3714 170.822 18.6307 170.699C18.8926 170.575 19.0879 170.418 19.2167 170.228C19.3468 170.041 19.4065 169.82 19.3958 169.564C19.389 169.309 19.3079 169.022 19.1527 168.703L18.6088 167.584L12.0849 170.674L11.2783 169.014ZM16.9278 171.553L14.2867 175.204L13.3963 173.372L16.0579 169.763L16.9278 171.553Z" fill="black"/>
<path d="M26.61 186.89C25.8198 187.42 25.0452 187.723 24.2863 187.798C23.5289 187.875 22.8283 187.757 22.1845 187.443C21.5447 187.13 21.0065 186.657 20.5698 186.023C20.1298 185.384 19.8812 184.713 19.824 184.009C19.7668 183.305 19.9139 182.619 20.2651 181.952C20.6164 181.286 21.1859 180.688 21.9737 180.159C22.7639 179.628 23.5377 179.324 24.295 179.247C25.0524 179.17 25.751 179.288 26.3908 179.601C27.033 179.912 27.574 180.387 28.0139 181.026C28.4507 181.66 28.6976 182.329 28.7548 183.033C28.816 183.738 28.671 184.424 28.3197 185.09C27.9701 185.76 27.4001 186.359 26.61 186.89ZM25.5488 185.349C26.0606 185.006 26.4399 184.64 26.6866 184.252C26.9349 183.866 27.0556 183.476 27.0487 183.08C27.0418 182.684 26.9118 182.303 26.6588 181.935C26.4058 181.568 26.0943 181.309 25.7241 181.157C25.3539 181.005 24.9407 180.971 24.4845 181.055C24.03 181.141 23.5467 181.356 23.0349 181.699C22.523 182.043 22.143 182.408 21.8946 182.793C21.6479 183.181 21.528 183.573 21.535 183.969C21.5419 184.364 21.6718 184.746 21.9249 185.113C22.1779 185.481 22.4894 185.74 22.8596 185.892C23.2298 186.044 23.6421 186.077 24.0967 185.99C24.5529 185.907 25.037 185.693 25.5488 185.349Z" fill="black"/>
<path d="M31.1969 199.337L29.0685 197.092L35.4785 191.169L37.6246 193.433C38.2285 194.07 38.6201 194.737 38.7993 195.434C38.9806 196.129 38.9496 196.821 38.7063 197.51C38.465 198.201 38.0115 198.854 37.3459 199.469C36.6782 200.086 35.9861 200.491 35.2697 200.685C34.5552 200.881 33.8498 200.866 33.1533 200.639C32.4589 200.414 31.8067 199.98 31.1969 199.337ZM31.4991 197.358L32.3054 198.209C32.6806 198.604 33.0672 198.872 33.4652 199.011C33.8671 199.15 34.2829 199.149 34.7123 199.007C35.1458 198.866 35.6015 198.574 36.0793 198.133C36.553 197.695 36.8746 197.269 37.0441 196.853C37.2156 196.439 37.2442 196.032 37.1301 195.63C37.0159 195.229 36.7712 194.831 36.396 194.435L35.5868 193.581L31.4991 197.358Z" fill="black"/>
<path d="M50.6581 205.355L52.113 206.49L48.5714 210.915C48.1738 211.412 47.706 211.753 47.1681 211.939C46.6324 212.126 46.0672 212.157 45.4725 212.032C44.8796 211.904 44.2986 211.619 43.7297 211.175C43.1585 210.729 42.7415 210.237 42.4787 209.697C42.2178 209.154 42.1177 208.604 42.1785 208.046C42.2393 207.489 42.4685 206.961 42.8662 206.464L46.4077 202.04L47.8626 203.175L44.4196 207.476C44.2119 207.736 44.0844 208.011 44.0371 208.302C43.992 208.595 44.0286 208.881 44.1468 209.16C44.2651 209.44 44.4642 209.689 44.7442 209.907C45.0264 210.128 45.3179 210.261 45.6185 210.308C45.9214 210.357 46.2107 210.325 46.4865 210.213C46.7645 210.102 47.0074 209.916 47.2151 209.657L50.6581 205.355Z" fill="black"/>
<path d="M64.0132 217.576L62.3825 216.668C62.4725 216.442 62.5181 216.222 62.5192 216.008C62.5218 215.791 62.4843 215.585 62.4065 215.389C62.3288 215.193 62.2133 215.012 62.0599 214.845C61.9089 214.68 61.7243 214.536 61.5059 214.414C61.1112 214.195 60.7118 214.101 60.3076 214.132C59.9048 214.162 59.517 214.317 59.1442 214.597C58.7729 214.874 58.4372 215.276 58.137 215.801C57.8283 216.342 57.6497 216.84 57.601 217.298C57.5548 217.756 57.6246 218.161 57.8104 218.512C57.9962 218.862 58.2814 219.145 58.6661 219.359C58.8821 219.479 59.0981 219.562 59.3142 219.608C59.5327 219.654 59.745 219.664 59.951 219.635C60.1584 219.605 60.3543 219.536 60.5388 219.431C60.7258 219.327 60.8957 219.184 61.0485 219.003L62.675 219.918C62.4341 220.243 62.1369 220.519 61.7835 220.748C61.434 220.977 61.0452 221.139 60.6171 221.235C60.1928 221.331 59.7436 221.344 59.2694 221.275C58.799 221.205 58.3194 221.034 57.8304 220.761C57.1503 220.383 56.6296 219.891 56.2682 219.287C55.9094 218.684 55.7404 218.006 55.7613 217.254C55.7848 216.503 56.0318 215.715 56.5025 214.891C56.9747 214.065 57.5327 213.449 58.1766 213.043C58.8206 212.638 59.4973 212.433 60.2067 212.428C60.9176 212.42 61.6081 212.603 62.2783 212.977C62.7201 213.223 63.0944 213.512 63.4012 213.846C63.7105 214.181 63.9439 214.548 64.1015 214.948C64.2605 215.345 64.3346 215.765 64.3238 216.208C64.3154 216.652 64.2119 217.108 64.0132 217.576Z" fill="black"/>
<path d="M70.4853 226.955L73.6255 218.812L79.1302 220.881L78.5828 222.3L74.8053 220.88L74.0571 222.821L77.5513 224.134L77.0039 225.553L73.5097 224.24L72.7599 226.184L76.5533 227.61L76.0059 229.03L70.4853 226.955Z" fill="black"/>
<path d="M88.2823 232.661L85.2608 231.996L87.1831 223.483L90.2295 224.154C91.0869 224.342 91.7864 224.675 92.3281 225.152C92.8705 225.626 93.2365 226.218 93.4262 226.925C93.6186 227.634 93.615 228.43 93.4154 229.314C93.2151 230.201 92.8752 230.926 92.3956 231.489C91.9187 232.054 91.3297 232.437 90.6284 232.641C89.93 232.845 89.1479 232.852 88.2823 232.661ZM87.4111 230.851L88.5556 231.103C89.0883 231.22 89.5577 231.224 89.9637 231.116C90.3731 231.005 90.7144 230.77 90.9876 230.412C91.2643 230.051 91.4742 229.553 91.6175 228.918C91.7595 228.289 91.7827 227.755 91.6869 227.315C91.5939 226.876 91.3869 226.522 91.066 226.253C90.7451 225.985 90.3183 225.792 89.7856 225.675L88.6369 225.422L87.4111 230.851Z" fill="black"/>
<path d="M111.417 235.705L111.322 226.978L114.817 226.941C115.459 226.934 115.995 227.024 116.426 227.209C116.857 227.395 117.182 227.656 117.402 227.992C117.621 228.325 117.734 228.71 117.738 229.147C117.742 229.488 117.677 229.789 117.544 230.049C117.41 230.306 117.225 230.518 116.988 230.685C116.754 230.85 116.485 230.968 116.182 231.039L116.183 231.124C116.515 231.135 116.828 231.225 117.119 231.396C117.414 231.566 117.653 231.806 117.839 232.117C118.024 232.424 118.119 232.793 118.123 233.222C118.128 233.685 118.018 234.099 117.792 234.465C117.568 234.828 117.235 235.118 116.791 235.332C116.347 235.547 115.799 235.658 115.145 235.665L111.417 235.705ZM113.246 234.177L114.75 234.161C115.264 234.155 115.638 234.053 115.872 233.855C116.105 233.654 116.22 233.388 116.217 233.059C116.214 232.817 116.154 232.605 116.035 232.421C115.917 232.238 115.749 232.095 115.532 231.992C115.318 231.889 115.063 231.839 114.767 231.842L113.221 231.859L113.246 234.177ZM113.207 230.61L114.575 230.596C114.828 230.593 115.052 230.547 115.247 230.456C115.445 230.363 115.599 230.234 115.711 230.068C115.826 229.902 115.882 229.704 115.88 229.474C115.876 229.159 115.761 228.905 115.535 228.715C115.311 228.524 114.995 228.431 114.586 228.435L113.184 228.45L113.207 230.61Z" fill="black"/>
<path d="M125.167 226.503L127.209 226.188L129.764 229.597L129.849 229.584L131.227 225.568L133.27 225.252L131.007 231.311L131.489 234.358L129.678 234.637L129.196 231.59L125.167 226.503Z" fill="black"/>
<path d="M154.389 218.964L156.098 218.269L158.279 223.5C158.524 224.088 158.598 224.659 158.5 225.214C158.405 225.768 158.157 226.27 157.757 226.721C157.356 227.169 156.821 227.529 156.153 227.801C155.482 228.073 154.844 228.19 154.24 228.15C153.634 228.108 153.1 227.923 152.637 227.596C152.175 227.269 151.821 226.812 151.576 226.225L149.395 220.994L151.104 220.299L153.225 225.384C153.353 225.691 153.534 225.937 153.767 226.121C154.004 226.304 154.274 226.413 154.578 226.449C154.882 226.485 155.199 226.436 155.528 226.302C155.86 226.167 156.119 225.982 156.307 225.746C156.498 225.509 156.61 225.244 156.645 224.951C156.683 224.657 156.637 224.356 156.509 224.05L154.389 218.964Z" fill="black"/>
<path d="M164.917 213.935L170.175 218.527L170.244 218.485L168.62 211.742L170.38 210.7L172.323 219.691L170.277 220.903L163.153 214.979L164.917 213.935Z" fill="black"/>
<path d="M180.798 203.06L182.229 201.895L185.864 206.242C186.272 206.731 186.512 207.254 186.582 207.812C186.655 208.368 186.567 208.92 186.317 209.468C186.066 210.013 185.661 210.514 185.102 210.97C184.54 211.428 183.964 211.727 183.374 211.867C182.782 212.005 182.217 211.986 181.677 211.81C181.137 211.634 180.663 211.302 180.255 210.814L176.62 206.466L178.05 205.3L181.584 209.527C181.798 209.782 182.043 209.963 182.321 210.07C182.602 210.175 182.893 210.199 183.195 210.144C183.496 210.089 183.785 209.949 184.06 209.724C184.338 209.498 184.531 209.245 184.642 208.965C184.754 208.683 184.783 208.397 184.73 208.107C184.678 207.815 184.546 207.542 184.333 207.287L180.798 203.06Z" fill="black"/>
<path d="M203.097 192.598L201.221 195.058L194.216 189.852L196.108 187.372C196.64 186.673 197.239 186.177 197.903 185.881C198.566 185.584 199.261 185.494 199.99 185.611C200.721 185.726 201.45 186.054 202.177 186.594C202.907 187.137 203.43 187.739 203.745 188.402C204.063 189.063 204.169 189.752 204.061 190.469C203.956 191.183 203.635 191.893 203.097 192.598ZM201.071 192.647L201.782 191.716C202.112 191.282 202.313 190.859 202.384 190.448C202.454 190.033 202.381 189.629 202.167 189.236C201.952 188.839 201.583 188.446 201.061 188.058C200.543 187.674 200.062 187.435 199.619 187.342C199.177 187.247 198.765 187.29 198.385 187.471C198.004 187.652 197.648 187.959 197.317 188.393L196.604 189.328L201.071 192.647Z" fill="black"/>
<path d="M208.417 173.623C208.205 173.579 208.003 173.567 207.811 173.588C207.616 173.608 207.433 173.66 207.26 173.746C207.087 173.828 206.927 173.943 206.779 174.09C206.633 174.234 206.503 174.412 206.39 174.622C206.178 175.014 206.09 175.411 206.125 175.811C206.161 176.209 206.322 176.59 206.608 176.952C206.891 177.313 207.301 177.635 207.839 177.918C208.377 178.202 208.878 178.361 209.343 178.398C209.808 178.434 210.22 178.355 210.579 178.163C210.936 177.968 211.224 177.669 211.443 177.264C211.641 176.897 211.745 176.549 211.755 176.22C211.764 175.887 211.685 175.589 211.518 175.324C211.352 175.057 211.105 174.837 210.775 174.663L211.003 174.359L209.933 176.339L208.704 175.691L210.44 172.478L211.413 172.991C212.091 173.348 212.598 173.798 212.931 174.34C213.262 174.88 213.425 175.47 213.419 176.109C213.41 176.746 213.231 177.387 212.883 178.032C212.494 178.752 211.992 179.3 211.379 179.677C210.762 180.052 210.076 180.237 209.321 180.231C208.564 180.22 207.779 180.001 206.964 179.572C206.339 179.242 205.829 178.858 205.436 178.42C205.042 177.978 204.763 177.504 204.598 176.996C204.433 176.489 204.379 175.97 204.436 175.442C204.492 174.913 204.658 174.395 204.932 173.887C205.167 173.452 205.45 173.081 205.781 172.774C206.109 172.465 206.467 172.227 206.855 172.059C207.244 171.888 207.648 171.794 208.068 171.778C208.484 171.76 208.898 171.825 209.308 171.974L208.417 173.623Z" fill="black"/>
<path d="M210.569 162.754L211.303 160.6L217.643 160.172L217.676 160.075L212.885 155.953L213.619 153.799L221.902 156.548L221.325 158.242L215.934 156.453L215.91 156.521L220.533 160.435L220.14 161.589L214.041 161.944L214.018 162.013L219.429 163.809L218.852 165.503L210.569 162.754Z" fill="black"/>
</svg>
